<?xml version="1.0" encoding="UTF-8"?>
<!DOCTYPE svg PUBLIC "-//W3C//DTD SVG 1.1//EN" "http://www.w3.org/Graphics/SVG/1.1/DTD/svg11.dtd">
<!-- Creator: CorelDRAW 2026 -->
<svg xmlns="http://www.w3.org/2000/svg" xml:space="preserve" width="136px" height="44px" version="1.1" style="shape-rendering:geometricPrecision; text-rendering:geometricPrecision; image-rendering:optimizeQuality; fill-rule:evenodd; clip-rule:evenodd"
viewBox="0 0 136 44.41"
 xmlns:xlink="http://www.w3.org/1999/xlink"
 xmlns:xodm="http://www.corel.com/coreldraw/odm/2003">
 <defs>
  <style type="text/css">
   <![CDATA[
    .fil0 {fill:#C10078;fill-rule:nonzero}
   ]]>
  </style>
 </defs>
 <g id="Layer_x0020_1">
  <metadata id="CorelCorpID_0Corel-Layer"/>
  <path id="eyes" class="fil0" d="M46.66 43.89c-3.99,-6.57 -11.22,-10.96 -19.47,-10.96l-4.42 0c-8.25,0 -15.48,4.39 -19.47,10.96 -2.1,-3.66 -3.3,-7.9 -3.3,-12.42l0 -6.49c0,-13.8 11.18,-24.98 24.98,-24.98 13.8,0 24.98,11.18 24.98,24.98l0 6.49c0,4.52 -1.2,8.76 -3.3,12.42l0 0zm86.12 0.52c-3.97,-6.64 -11.24,-11.09 -19.55,-11.09l-4.42 0c-8.31,0 -15.57,4.45 -19.55,11.09 -2.05,-3.62 -3.22,-7.81 -3.22,-12.27l0 -7.16c0,-13.8 11.19,-24.98 24.98,-24.98 13.8,0 24.98,11.18 24.98,24.98l0 7.16c0,4.46 -1.17,8.65 -3.22,12.27l0 0z"/>
 </g>
</svg>
