<?xml version="1.0" encoding="UTF-8"?>
<!DOCTYPE svg PUBLIC "-//W3C//DTD SVG 1.1//EN" "http://www.w3.org/Graphics/SVG/1.1/DTD/svg11.dtd">
<!-- Creator: CorelDRAW 2026 -->
<svg xmlns="http://www.w3.org/2000/svg" xml:space="preserve" width="263px" height="215px" version="1.1" style="shape-rendering:geometricPrecision; text-rendering:geometricPrecision; image-rendering:optimizeQuality; fill-rule:evenodd; clip-rule:evenodd"
viewBox="0 0 263 214.93"
 xmlns:xlink="http://www.w3.org/1999/xlink"
 xmlns:xodm="http://www.corel.com/coreldraw/odm/2003">
 <defs>
  <style type="text/css">
   <![CDATA[
    .fil0 {fill:white;fill-rule:nonzero}
   ]]>
  </style>
 </defs>
 <g id="Layer_x0020_1">
  <metadata id="CorelCorpID_0Corel-Layer"/>
  <path id="helmet" class="fil0" d="M240.42 76.86l9.43 0c7.26,0 13.15,15.7 13.15,35.06 0,19.37 -5.89,35.07 -13.15,35.07l-7.83 0c-12.41,41.92 -57.17,67.94 -110.52,67.94 -53.35,0 -98.13,-26.02 -110.55,-67.94l-7.8 0c-7.26,0 -13.15,-15.7 -13.15,-35.07 0,-19.36 5.89,-35.07 13.15,-35.07l9.41 0.01c14.33,-45.08 57.68,-76.86 108.93,-76.86 51.25,0 94.61,31.78 108.93,76.86zm-108.92 118.35c53.26,0 96.43,-35.79 96.43,-74.52 0,-38.73 -43.17,-70.13 -96.43,-70.13 -53.26,0 -96.43,31.4 -96.43,70.13 0,38.73 43.17,74.52 96.43,74.52z"/>
 </g>
</svg>
