<?xml version="1.0" encoding="UTF-8"?>
<!DOCTYPE svg PUBLIC "-//W3C//DTD SVG 1.1//EN" "http://www.w3.org/Graphics/SVG/1.1/DTD/svg11.dtd">
<!-- Creator: CorelDRAW 2026 -->
<svg xmlns="http://www.w3.org/2000/svg" xml:space="preserve" width="237px" height="75px" version="1.1" style="shape-rendering:geometricPrecision; text-rendering:geometricPrecision; image-rendering:optimizeQuality; fill-rule:evenodd; clip-rule:evenodd"
viewBox="0 0 237 74.61"
 xmlns:xlink="http://www.w3.org/1999/xlink"
 xmlns:xodm="http://www.corel.com/coreldraw/odm/2003">
 <defs>
  <style type="text/css">
   <![CDATA[
    .fil0 {fill:black;fill-rule:nonzero}
   ]]>
  </style>
 </defs>
 <g id="Layer_x0020_1">
  <metadata id="CorelCorpID_0Corel-Layer"/>
  <path id="antennae" class="fil0" d="M232.61 35.11c2.43,0 4.39,1.97 4.39,4.39l0 30.72c0,2.43 -1.97,4.39 -4.39,4.39 -2.42,0 -4.39,-1.97 -4.39,-4.39l0 -30.72c0,-2.42 1.97,-4.39 4.39,-4.39zm-228.22 0c2.42,0 4.39,1.97 4.39,4.39l0 30.72c0,2.43 -1.97,4.39 -4.39,4.39 -2.43,0 -4.39,-1.97 -4.39,-4.39l0 -30.72c0,-2.42 1.97,-4.39 4.39,-4.39zm228.22 -17.55c2.43,0 4.39,1.96 4.39,4.38l0 4.39c0,2.43 -1.97,4.39 -4.39,4.39 -2.42,0 -4.39,-1.96 -4.39,-4.39l0 -4.39c0,-2.42 1.97,-4.38 4.39,-4.38zm0 -17.56c2.43,0 4.39,1.97 4.39,4.39l0 4.39c0,2.42 -1.97,4.39 -4.39,4.39 -2.42,0 -4.39,-1.97 -4.39,-4.39l0 -4.39c0,-2.42 1.97,-4.39 4.39,-4.39l0 0zm-228.22 17.56c2.42,0 4.39,1.96 4.39,4.38l0 4.39c0,2.43 -1.97,4.39 -4.39,4.39 -2.43,0 -4.39,-1.96 -4.39,-4.39l0 -4.39c0,-2.42 1.97,-4.38 4.39,-4.38zm0 -17.56c2.42,0 4.39,1.97 4.39,4.39l0 4.39c0,2.42 -1.97,4.39 -4.39,4.39 -2.42,0 -4.39,-1.97 -4.39,-4.39l0 -4.39c0,-2.42 1.97,-4.39 4.39,-4.39l0 0z"/>
 </g>
</svg>
