<?xml version="1.0" encoding="UTF-8"?>
<!DOCTYPE svg PUBLIC "-//W3C//DTD SVG 1.1//EN" "http://www.w3.org/Graphics/SVG/1.1/DTD/svg11.dtd">
<!-- Creator: CorelDRAW 2026 -->
<svg xmlns="http://www.w3.org/2000/svg" xml:space="preserve" width="26px" height="64px" version="1.1" style="shape-rendering:geometricPrecision; text-rendering:geometricPrecision; image-rendering:optimizeQuality; fill-rule:evenodd; clip-rule:evenodd"
viewBox="0 0 26 62.84"
 xmlns:xlink="http://www.w3.org/1999/xlink"
 xmlns:xodm="http://www.corel.com/coreldraw/odm/2003">
 <defs>
  <style type="text/css">
   <![CDATA[
    .fil0 {fill:#3C1B6C;fill-rule:nonzero}
   ]]>
  </style>
 </defs>
 <g id="Layer_x0020_1">
  <metadata id="CorelCorpID_0Corel-Layer"/>
  <path id="stem" class="fil0" d="M13 62.84c7.18,0 13,-2.91 13,-6.5 0,-3.59 -5.82,-6.5 -13,-6.5 -7.18,0 -13,2.91 -13,6.5 0,3.59 5.82,6.5 13,6.5zm8.62 -7.17l-4.29 -55.67 -8.66 0 -4.29 55.67c-0.03,0.42 0.19,0.82 0.55,1.03 2.14,1.2 4.82,1.8 8.07,1.8 3.25,0 5.93,-0.6 8.07,-1.8 0.36,-0.21 0.58,-0.61 0.55,-1.03z"/>
 </g>
</svg>
